<?xml version="1.0" standalone="no"?>
<!DOCTYPE svg PUBLIC "-//W3C//DTD SVG 20010904//EN"
 "http://www.w3.org/TR/2001/REC-SVG-20010904/DTD/svg10.dtd">
<svg version="1.0" xmlns="http://www.w3.org/2000/svg"
 width="720.000000pt" height="720.000000pt" viewBox="0 0 720.000000 720.000000"
 preserveAspectRatio="xMidYMid meet">
<metadata>
Created by potrace 1.16, written by Peter Selinger 2001-2019
</metadata>
<g transform="translate(0.000000,720.000000) scale(0.100000,-0.100000)"
fill="#000000" stroke="none">
<path d="M1940 4251 c-39 -12 -105 -57 -127 -85 -11 -14 -23 -23 -27 -21 -3 3
-4 2 -1 -2 3 -3 -1 -16 -8 -27 -54 -82 -85 -310 -68 -491 6 -60 11 -117 11
-125 0 -11 -29 -21 -103 -38 -97 -22 -224 -63 -257 -83 -8 -5 -24 -13 -35 -18
-35 -15 -127 -114 -146 -156 -32 -72 -34 -127 -8 -200 26 -75 67 -118 150
-161 49 -25 65 -28 159 -28 97 -1 109 1 157 27 28 16 57 35 64 43 6 7 16 11
22 7 5 -3 8 -2 5 3 -6 12 28 44 38 36 4 -4 4 -2 1 4 -4 7 0 17 7 23 25 21 66
109 66 143 0 17 5 57 12 89 9 43 9 76 0 139 -7 46 -10 85 -8 88 3 2 40 8 83
14 89 10 188 27 207 34 10 4 11 -6 3 -49 -12 -67 -3 -121 25 -147 32 -30 61
-25 105 19 l39 39 -9 -61 c-5 -34 -17 -109 -28 -167 -10 -58 -19 -135 -19
-172 0 -65 1 -68 24 -68 33 0 56 35 56 87 0 23 7 68 15 99 8 31 17 80 20 108
15 135 15 136 36 136 34 0 95 38 133 81 124 145 51 362 -78 230 -33 -34 -41
-38 -57 -28 -27 17 -51 -1 -67 -49 -7 -21 -21 -47 -30 -57 -9 -11 -16 -22 -15
-26 2 -3 -12 -26 -29 -50 -17 -25 -34 -39 -36 -33 -2 6 3 46 11 89 9 43 16 85
16 93 0 8 3 27 7 43 7 32 -9 57 -38 57 -27 0 -48 -24 -48 -53 0 -37 -23 -44
-249 -77 -40 -6 -76 -9 -78 -6 -21 21 -29 301 -12 423 18 135 88 243 156 243
20 0 23 -5 23 -43 0 -29 -8 -54 -26 -80 -30 -44 -29 -81 2 -85 28 -4 93 73
102 120 13 76 8 117 -19 144 -28 28 -86 39 -129 25z m-206 -874 c3 -13 8 -72
12 -133 10 -168 -21 -250 -120 -315 -37 -25 -59 -32 -118 -36 -136 -10 -220
35 -258 138 -23 60 -23 61 -5 117 16 53 46 90 108 139 24 19 127 65 156 70 14
2 58 12 96 23 97 26 121 26 129 -3z"/>
<path d="M3745 4251 c-52 -13 -221 -117 -361 -222 -71 -53 -78 -56 -167 -67
-184 -25 -182 -24 -185 -54 -5 -39 23 -50 97 -40 l61 9 -50 -53 c-55 -59 -100
-146 -100 -196 0 -63 77 -138 141 -138 30 0 113 21 167 41 31 12 28 3 -5 -15
-16 -8 -44 -29 -63 -46 -19 -17 -79 -70 -133 -118 -104 -92 -204 -210 -249
-295 -32 -59 -38 -139 -13 -173 8 -12 11 -25 7 -29 -4 -5 -2 -5 4 -2 6 3 18
-2 26 -12 37 -43 201 -34 300 15 67 34 171 94 178 103 12 15 89 71 98 71 13 0
181 155 313 289 l105 107 1 -49 c1 -98 62 -134 129 -75 l37 33 -7 -45 c-3 -25
-9 -111 -13 -192 -5 -127 -4 -151 11 -173 32 -49 89 -20 66 34 -15 37 -10 167
14 341 27 202 36 235 91 343 47 93 55 103 86 109 122 26 182 38 184 36 2 -2
-1 -28 -7 -58 -5 -30 -14 -82 -19 -115 -11 -66 -36 -120 -102 -223 -16 -24
-30 -42 -32 -40 -1 1 6 60 18 130 16 104 18 130 7 143 -29 34 -80 8 -80 -42 0
-15 -7 -50 -15 -77 -23 -76 -30 -178 -14 -207 7 -13 12 -28 11 -32 -1 -5 2 -6
7 -3 5 4 12 2 16 -4 15 -25 57 -9 107 41 l51 51 -7 -58 c-4 -33 -12 -90 -16
-129 -23 -178 -8 -295 38 -310 42 -13 75 30 46 59 -9 10 -14 37 -14 78 0 83
26 350 45 458 8 47 19 114 24 150 5 36 18 98 28 139 19 72 21 75 58 88 21 7
68 18 103 24 78 12 102 24 102 49 0 39 -60 43 -176 11 -21 -6 -39 -9 -40 -8
-2 1 8 34 22 72 31 91 31 122 -1 137 -41 18 -58 -9 -110 -173 -15 -47 -23 -58
-51 -68 -35 -13 -174 -41 -174 -35 0 2 9 23 19 46 41 90 51 118 71 179 41 131
13 217 -62 193 -47 -14 -81 -62 -118 -168 -73 -213 -120 -372 -120 -409 0 -34
-19 -52 -72 -72 -26 -10 -54 -25 -63 -35 -9 -10 -25 -15 -38 -13 -18 4 -40
-14 -107 -83 -102 -105 -271 -273 -314 -312 -100 -88 -243 -187 -339 -232 -59
-28 -74 -31 -144 -28 l-78 3 0 52 c1 43 7 60 35 100 59 84 142 173 154 166 6
-3 8 -3 5 1 -6 6 47 61 109 112 13 10 38 32 55 48 18 16 66 54 107 84 41 31
77 58 80 62 3 3 44 34 92 68 48 35 112 85 141 112 30 27 57 46 61 42 4 -4 6
-2 5 3 -2 6 5 23 15 38 15 22 17 34 10 55 -14 38 -57 34 -122 -12 -29 -20 -54
-36 -57 -36 -2 0 -40 -24 -84 -54 -44 -30 -106 -67 -138 -83 -32 -16 -69 -35
-83 -43 -27 -16 -120 -38 -161 -39 -44 -1 -62 19 -53 63 5 29 25 58 78 114 71
75 189 172 210 172 21 0 204 77 216 91 3 3 32 22 66 43 34 20 75 52 92 69 32
33 49 83 35 103 -11 16 -62 24 -98 15z"/>
<path d="M2672 3628 c-21 -27 -42 -112 -42 -173 0 -54 -4 -68 -26 -94 -14 -17
-30 -29 -34 -26 -5 3 -12 0 -16 -6 -5 -8 -3 -9 7 -4 11 6 11 5 -1 -6 -8 -8
-20 -21 -28 -29 -10 -11 -12 -11 -6 -1 5 10 3 12 -5 7 -7 -5 -10 -10 -7 -13 3
-3 -9 -24 -26 -45 -33 -43 -44 -97 -25 -133 15 -30 27 -35 81 -35 54 0 96 22
130 67 23 31 45 122 46 187 0 46 3 51 71 121 63 65 69 76 59 94 -16 32 -45 25
-86 -19 -21 -22 -39 -39 -41 -37 -2 2 7 27 18 56 18 42 20 56 11 76 -13 28
-61 35 -80 13z"/>
<path d="M4684 3627 c-6 -7 -14 -39 -18 -71 -3 -31 -10 -65 -15 -75 -6 -10
-13 -47 -17 -83 -5 -49 -3 -72 9 -95 9 -17 13 -34 9 -38 -4 -5 -2 -5 5 -1 6 3
14 2 18 -4 14 -23 56 -9 102 35 25 25 50 45 55 45 5 0 22 -10 38 -21 34 -26
69 -20 113 17 16 13 34 24 42 24 7 0 15 7 19 15 11 30 21 14 18 -30 -6 -73 3
-96 38 -93 16 1 27 4 25 7 -3 2 -1 9 4 15 5 6 21 43 35 81 36 95 89 201 94
187 2 -7 -1 -33 -7 -59 -5 -27 -13 -82 -16 -123 -7 -68 -5 -77 14 -94 13 -12
30 -17 45 -14 l25 5 -24 -29 c-36 -43 -42 -75 -19 -117 18 -33 23 -36 72 -39
46 -3 58 1 92 28 65 51 80 85 80 178 l0 80 46 47 c37 37 48 55 51 90 7 60 -11
66 -54 19 -19 -22 -33 -34 -31 -29 2 6 12 32 22 58 15 38 17 52 8 72 -13 27
-53 34 -72 13 -17 -21 -77 -115 -92 -145 -26 -50 -60 -108 -69 -118 -14 -15
-11 38 6 85 27 76 15 152 -29 182 -26 18 -60 7 -99 -34 -32 -33 -47 -42 -76
-42 -29 -1 -39 -7 -56 -33 -11 -18 -22 -32 -25 -32 -3 0 -12 14 -20 32 -15 32
-16 32 -90 34 -41 1 -80 -3 -86 -8 -7 -6 -27 -38 -45 -72 -17 -34 -41 -75 -53
-92 -11 -16 -22 -32 -23 -34 -10 -16 -11 14 -3 60 5 30 11 72 14 94 2 22 9 52
14 66 19 49 -41 93 -74 56z"/>
</g>
</svg>
